<?xml version="1.0" standalone="no"?>
<!DOCTYPE svg PUBLIC "-//W3C//DTD SVG 20010904//EN"
 "http://www.w3.org/TR/2001/REC-SVG-20010904/DTD/svg10.dtd">
<svg version="1.0" xmlns="http://www.w3.org/2000/svg"
 width="254.000000pt" height="102.000000pt" viewBox="0 0 254.000000 102.000000"
 preserveAspectRatio="xMidYMid meet">

<g transform="translate(0.000000,102.000000) scale(0.100000,-0.100000)"
fill="#000000" stroke="none">
<path d="M0 510 l0 -510 1270 0 1270 0 0 510 0 510 -1270 0 -1270 0 0 -510z
m278 212 l3 -92 93 0 93 0 7 53 c3 28 6 71 6 95 0 46 19 64 45 42 12 -10 15
-50 15 -236 l0 -224 -30 0 -30 0 0 89 0 89 -32 4 c-18 2 -62 4 -98 4 l-65 -1
-5 -90 -5 -90 -32 -3 -33 -3 0 229 c0 126 3 231 6 234 3 3 17 3 32 -1 27 -7
27 -9 30 -99z m1611 -107 c82 -224 87 -248 53 -253 -30 -4 -49 12 -57 49 -11
50 -30 61 -94 53 -47 -5 -61 -3 -75 11 -9 10 -18 16 -20 14 -2 -2 -12 -31 -23
-64 -18 -55 -22 -60 -51 -63 -28 -3 -32 0 -32 21 0 24 119 378 140 418 9 16
19 19 48 17 l37 -3 74 -200z m251 -26 l0 -230 -32 3 -33 3 -3 228 -2 227 35 0
35 0 0 -231z m-1442 109 c8 -8 12 -48 12 -116 0 -133 5 -142 75 -142 l55 0 0
130 0 130 29 0 c17 0 31 -6 35 -16 3 -9 6 -85 6 -170 l0 -154 -82 0 c-92 0
-132 16 -165 67 -23 34 -33 244 -13 268 15 18 32 19 48 3z m522 -23 c54 -28
60 -47 60 -188 l0 -129 -100 4 -100 3 -37 38 c-36 36 -38 40 -38 105 0 84 28
135 89 163 50 23 88 24 126 4z m244 -251 c31 -30 8 -69 -36 -62 -26 3 -37 41
-18 64 16 18 35 18 54 -2z m-614 -179 c0 -10 -11 -15 -35 -15 -24 0 -35 -5
-35 -15 0 -10 11 -15 35 -15 47 0 47 -26 -1 -34 -25 -5 -35 -12 -33 -24 3 -33
-1 -42 -21 -42 -18 0 -20 7 -20 73 0 41 3 77 7 80 3 4 28 7 55 7 36 0 48 -4
48 -15z m100 -11 c6 -14 10 -40 10 -58 0 -29 4 -34 32 -42 55 -16 47 -36 -13
-32 l-54 3 -3 78 c-3 79 9 102 28 51z m167 -11 l16 -38 11 25 c28 64 49 59 61
-16 7 -52 21 -50 30 5 4 22 13 45 21 52 24 19 26 -10 6 -81 -16 -57 -22 -65
-44 -68 -22 -3 -28 2 -38 34 l-13 38 -11 -35 c-17 -54 -38 -43 -62 36 -16 51
-19 72 -10 77 16 11 16 11 33 -29z m321 25 c-3 -7 -19 -14 -36 -16 -41 -4 -42
-22 -1 -22 24 0 30 -4 27 -17 -2 -11 -14 -19 -31 -21 -15 -2 -27 -7 -27 -11 0
-15 25 -31 47 -31 14 0 23 -6 23 -15 0 -11 -12 -15 -50 -15 l-50 0 0 80 0 80
51 0 c36 0 49 -4 47 -12z m196 -20 c8 -22 6 -32 -8 -47 -18 -19 -17 -21 4 -48
19 -25 20 -28 5 -31 -26 -6 -43 5 -47 29 -5 36 -28 36 -28 0 0 -24 -4 -31 -20
-31 -18 0 -20 7 -20 81 l0 80 52 -3 c47 -3 54 -6 62 -30z m-954 -48 c0 -6 -85
-10 -235 -10 -150 0 -235 4 -235 10 0 6 85 10 235 10 150 0 235 -4 235 -10z
m1393 3 c-62 -2 -164 -2 -225 0 -62 1 -12 3 112 3 124 0 174 -2 113 -3z"/>
<path d="M1765 709 c-18 -49 -55 -164 -55 -171 0 -6 97 -5 127 2 3 0 -56 173
-62 178 -2 3 -7 -1 -10 -9z"/>
<path d="M1136 590 c-55 -10 -73 -39 -66 -105 1 -11 10 -28 20 -39 15 -15 26
-17 64 -12 l46 7 0 80 c0 57 -3 79 -12 78 -7 -1 -31 -5 -52 -9z"/>
<path d="M1560 209 c0 -14 5 -19 17 -17 26 5 29 38 4 38 -15 0 -21 -6 -21 -21z"/>
</g>
</svg>
